<svg xmlns="http://www.w3.org/2000/svg" xmlns:xlink="http://www.w3.org/1999/xlink" width="176" height="59"><defs><path id="b" d="M294.289 0L97.436 6.276 94 198.466l196.853 13.311z"/><filter id="a" width="107%" height="106.6%" x="-3.5%" y="-2.4%" filterUnits="objectBoundingBox"><feOffset dy="2" in="SourceAlpha" result="shadowOffsetOuter1"/><feGaussianBlur in="shadowOffsetOuter1" result="shadowBlurOuter1" stdDeviation="2"/><feColorMatrix in="shadowBlurOuter1" values="0 0 0 0 0 0 0 0 0 0 0 0 0 0 0 0 0 0 0.08 0"/></filter><path id="d" d="M0 66l170.032 4.15L173 197.2 2.968 206z"/><filter id="c" width="108.1%" height="110%" x="-4%" y="-3.6%" filterUnits="objectBoundingBox"><feOffset dy="2" in="SourceAlpha" result="shadowOffsetOuter1"/><feGaussianBlur in="shadowOffsetOuter1" result="shadowBlurOuter1" stdDeviation="2"/><feColorMatrix in="shadowBlurOuter1" values="0 0 0 0 0 0 0 0 0 0 0 0 0 0 0 0 0 0 0.08 0"/></filter><path id="f" d="M100.504 105.697l131.44-6.694c1.382-.07 2.503 1.017 2.503 2.43v134.223c0 1.412-1.121 2.5-2.504 2.428l-131.44-6.73c-1.382-.07-2.503-1.158-2.503-2.429v-120.8c0-1.27 1.12-2.358 2.504-2.428z"/><filter id="e" width="110.3%" height="110.1%" x="-5.1%" y="-3.6%" filterUnits="objectBoundingBox"><feOffset dy="2" in="SourceAlpha" result="shadowOffsetOuter1"/><feGaussianBlur in="shadowOffsetOuter1" result="shadowBlurOuter1" stdDeviation="2"/><feColorMatrix in="shadowBlurOuter1" values="0 0 0 0 0 0 0 0 0 0 0 0 0 0 0 0 0 0 0.2 0"/></filter><path id="h" d="M94 160h47.415v54.586L94 212.161z"/><filter id="g" width="129.5%" height="125.6%" x="-14.8%" y="-9.2%" filterUnits="objectBoundingBox"><feOffset dy="2" in="SourceAlpha" result="shadowOffsetOuter1"/><feGaussianBlur in="shadowOffsetOuter1" result="shadowBlurOuter1" stdDeviation="2"/><feColorMatrix in="shadowBlurOuter1" values="0 0 0 0 0 0 0 0 0 0 0 0 0 0 0 0 0 0 0.1 0"/></filter><path id="j" d="M76 178.278L112.839 177v40.27L76 214.78z"/><filter id="i" width="170.6%" height="164.6%" x="-35.3%" y="-27.3%" filterUnits="objectBoundingBox"><feOffset dy="2" in="SourceAlpha" result="shadowOffsetOuter1"/><feGaussianBlur in="shadowOffsetOuter1" result="shadowBlurOuter1" stdDeviation="4"/><feColorMatrix in="shadowBlurOuter1" values="0 0 0 0 0 0 0 0 0 0 0 0 0 0 0 0 0 0 0.1 0"/></filter></defs><g fill="none" fill-rule="evenodd"><g transform="translate(2 -183)"><use fill="#000" filter="url(#a)" xlink:href="#b"/><use fill="#04BA94" xlink:href="#b"/></g><g transform="translate(2 -183)"><use fill="#000" filter="url(#c)" xlink:href="#d"/><use fill="#2AA6A6" xlink:href="#d"/></g><g transform="translate(2 -183)"><use fill="#000" filter="url(#e)" xlink:href="#f"/><use fill="#1F9393" xlink:href="#f"/></g><g transform="translate(2 -183)"><use fill="#000" filter="url(#g)" xlink:href="#h"/><use fill="#2AA6A6" xlink:href="#h"/></g><g transform="translate(2 -183)"><use fill="#000" filter="url(#i)" xlink:href="#j"/><use fill="#2FBABA" xlink:href="#j"/></g></g></svg>